# xmcd
#
# Track frame offsets:
#	150
#	32254
#	58650
#	86192
#	115808
#	138935
#	157777
#	174912
#	190884
#	212878
#	233979
#	270339
#	288065
#	303146
#
# Disc length: 4338 seconds
#
# Revision: 0
# Processed by: cddbd v1.4PL0 Copyright (c) Steve Scherf et al.
# Submitted via: dBpowerAMP V4.0
#
DISCID=af10f00e
DTITLE=Tom Waits - Strange Temptation Disc Two
DYEAR=1999
DGENRE=blues
TTITLE0=Filipino Box Spring Hog
TTITLE1=The Heart of Saturday Night
TTITLE2=Jesus Gonna Be Here Soon
TTITLE3=9th and Hampton
TTITLE4=Goin' Out West
TTITLE5=Johnburg Illinois
TTITLE6=Innocent When You Dream
TTITLE7=Emotional Weather Report (Bonus Track)
TTITLE8=Sight for Sore Eyes (Bonus Track)
TTITLE9=Jitterbug Boy (Bonus Track)
TTITLE10=Diamonds on My Windshield (Bonus Track)
TTITLE11=San Diego Serenada (Bonus Track)
TTITLE12=Tom Traubert's Blues (Bonus Track)
TTITLE13=New Coat of Paint (Bonus Track)
EXTD=Live from Austin Texas\nParamount Theater\nMarch 20, 1999\nBonus Tracks - Live from KNEW Studios\nNew York City\nDecember 14, 1976
EXTT0=
EXTT1=
EXTT2=
EXTT3=
EXTT4=
EXTT5=
EXTT6=
EXTT7=
EXTT8=
EXTT9=
EXTT10=
EXTT11=
EXTT12=
EXTT13=
PLAYORDER=
